# xmcd CD database file
#
# Track frame offsets:
#	183
#	22928
#	50155
#	68343
#	87063
#	102125
#	119345
#	135163
#
# Disc length: 2113 seconds
#
# Revision: 1
# Processed by: cddbd v1.5.2PL0 Copyright (c) Steve Scherf et al.
# Submitted via: CDex 1.51
#
DISCID=57083f08
DTITLE=Gold Seal - Blues
DYEAR=1989
DGENRE=Jazz
TTITLE0=L. Armstrong et Ella Fitzgerald - Summertime
TTITLE1=L. Armstrong et Ella Fitzgerald - Autumn in N.Y.
TTITLE2=Miles Davis - Dîner au motel
TTITLE3=Chet Baker - Born to be blue
TTITLE4=Django Reinhardt - Nuages
TTITLE5=Billy Holiday - Lady sings the blue
TTITLE6=Charlie Parker- Bloomdido
TTITLE7=Stan Getz - The girl from Ipaneme
EXTD=YEAR: 1989
EXTT0=
EXTT1=
EXTT2=
EXTT3=
EXTT4=
EXTT5=
EXTT6=
EXTT7=
PLAYORDER=
